<svg width="16" height="16" viewBox="0 0 16 16" fill="none" xmlns="http://www.w3.org/2000/svg">
<g id="output">
<mask id="mask0_1560_1042" style="mask-type:alpha" maskUnits="userSpaceOnUse" x="0" y="0" width="16" height="16">
<rect id="Bounding box" width="16" height="16" fill="#D9D9D9"/>
</mask>
<g mask="url(#mask0_1560_1042)">
<path id="output_2" d="M3.33333 14C2.96667 14 2.65278 13.8694 2.39167 13.6083C2.13056 13.3472 2 13.0333 2 12.6667V3.33333C2 2.96667 2.13056 2.65278 2.39167 2.39167C2.65278 2.13056 2.96667 2 3.33333 2H12.6667C13.0333 2 13.3472 2.13056 13.6083 2.39167C13.8694 2.65278 14 2.96667 14 3.33333V4C14 4.18889 13.9361 4.34722 13.8083 4.475C13.6806 4.60278 13.5222 4.66667 13.3333 4.66667C13.1444 4.66667 12.9861 4.60278 12.8583 4.475C12.7306 4.34722 12.6667 4.18889 12.6667 4V3.33333H3.33333V12.6667H12.6667V12C12.6667 11.8111 12.7306 11.6528 12.8583 11.525C12.9861 11.3972 13.1444 11.3333 13.3333 11.3333C13.5222 11.3333 13.6806 11.3972 13.8083 11.525C13.9361 11.6528 14 11.8111 14 12V12.6667C14 13.0333 13.8694 13.3472 13.6083 13.6083C13.3472 13.8694 13.0333 14 12.6667 14H3.33333ZM12.1167 8.66667H6.66667C6.47778 8.66667 6.31944 8.60278 6.19167 8.475C6.06389 8.34722 6 8.18889 6 8C6 7.81111 6.06389 7.65278 6.19167 7.525C6.31944 7.39722 6.47778 7.33333 6.66667 7.33333H12.1167L10.8667 6.06667C10.7444 5.94444 10.6806 5.79167 10.675 5.60833C10.6694 5.425 10.7333 5.26667 10.8667 5.13333C10.9889 5.01111 11.1444 4.95 11.3333 4.95C11.5222 4.95 11.6778 5.01111 11.8 5.13333L14.2 7.53333C14.2667 7.6 14.3139 7.67222 14.3417 7.75C14.3694 7.82778 14.3833 7.91111 14.3833 8C14.3833 8.08889 14.3694 8.17222 14.3417 8.25C14.3139 8.32778 14.2667 8.4 14.2 8.46667L11.8 10.8667C11.6778 10.9889 11.525 11.0528 11.3417 11.0583C11.1583 11.0639 11 11 10.8667 10.8667C10.7444 10.7444 10.6833 10.5889 10.6833 10.4C10.6833 10.2111 10.7444 10.0556 10.8667 9.93333L12.1167 8.66667Z" fill="#7E7E7E"/>
</g>
</g>
</svg>
