<svg width="24" height="24" viewBox="0 0 24 24" fill="none" xmlns="http://www.w3.org/2000/svg">
<g id="photo_camera">
<mask id="mask0_1439_1488" style="mask-type:alpha" maskUnits="userSpaceOnUse" x="0" y="0" width="24" height="24">
<rect id="Bounding box" width="24" height="24" fill="#D9D9D9"/>
</mask>
<g mask="url(#mask0_1439_1488)">
<path id="photo_camera_2" d="M12 17.4C13.2 17.4 14.2 16.9917 15 16.175C15.8 15.3583 16.2 14.3667 16.2 13.2C16.2 12.05 15.8 11.0625 15 10.2375C14.2 9.41251 13.2 9.00001 12 9.00001C10.8 9.00001 9.80002 9.41251 9.00002 10.2375C8.20002 11.0625 7.80002 12.0542 7.80002 13.2125C7.80002 14.3708 8.20002 15.3583 9.00002 16.175C9.80002 16.9917 10.8 17.4 12 17.4ZM12 15.6C11.3 15.6 10.725 15.3656 10.275 14.8968C9.82502 14.4279 9.60002 13.854 9.60002 13.175C9.60002 12.51 9.82502 11.9479 10.275 11.4888C10.725 11.0296 11.3 10.8 12 10.8C12.7 10.8 13.275 11.0296 13.725 11.4888C14.175 11.9479 14.4 12.51 14.4 13.175C14.4 13.854 14.175 14.4279 13.725 14.8968C13.275 15.3656 12.7 15.6 12 15.6ZM4.20002 20.4C3.71669 20.4 3.29586 20.2208 2.93752 19.8625C2.57919 19.5042 2.40002 19.0833 2.40002 18.6V7.80001C2.40002 7.31667 2.57919 6.89584 2.93752 6.53751C3.29586 6.17917 3.71669 6.00001 4.20002 6.00001H7.20002L8.45003 4.32501C8.63336 4.09167 8.85152 3.91251 9.10452 3.78751C9.35736 3.66251 9.62252 3.60001 9.90002 3.60001H14.1045C14.3849 3.60001 14.65 3.66251 14.9 3.78751C15.15 3.91251 15.3667 4.09167 15.55 4.32501L16.8 6.00001H19.8C20.295 6.00001 20.7188 6.17917 21.0713 6.53751C21.4238 6.89584 21.6 7.31667 21.6 7.80001V18.6C21.6 19.0833 21.4238 19.5042 21.0713 19.8625C20.7188 20.2208 20.295 20.4 19.8 20.4H4.20002ZM4.20002 18.6H19.8V7.80001H15.9L14.0975 5.40001H9.90002L8.10002 7.80001H4.20002V18.6Z" fill="#B7B7B7"/>
</g>
</g>
</svg>
