<svg width="20" height="20" viewBox="0 0 20 20" fill="none" xmlns="http://www.w3.org/2000/svg">
<g id="check_circle">
<mask id="mask0_1290_3143" style="mask-type:alpha" maskUnits="userSpaceOnUse" x="0" y="0" width="20" height="20">
<rect id="Bounding box" width="20" height="20" fill="#D9D9D9"/>
</mask>
<g mask="url(#mask0_1290_3143)">
<path id="check_circle_2" d="M8.83332 11.4998L7.04166 9.70817C6.88888 9.55539 6.69443 9.479 6.45832 9.479C6.22221 9.479 6.02777 9.55539 5.87499 9.70817C5.72221 9.86095 5.64582 10.0554 5.64582 10.2915C5.64582 10.5276 5.72221 10.7221 5.87499 10.8748L8.24999 13.2498C8.41666 13.4165 8.6111 13.4998 8.83332 13.4998C9.05555 13.4998 9.24999 13.4165 9.41666 13.2498L14.125 8.5415C14.2778 8.38873 14.3542 8.19428 14.3542 7.95817C14.3542 7.72206 14.2778 7.52761 14.125 7.37484C13.9722 7.22206 13.7778 7.14567 13.5417 7.14567C13.3055 7.14567 13.1111 7.22206 12.9583 7.37484L8.83332 11.4998ZM9.99999 18.3332C8.84721 18.3332 7.76388 18.1144 6.74999 17.6769C5.7361 17.2394 4.85416 16.6457 4.10416 15.8957C3.35416 15.1457 2.76041 14.2637 2.32291 13.2498C1.88541 12.2359 1.66666 11.1526 1.66666 9.99984C1.66666 8.84706 1.88541 7.76373 2.32291 6.74984C2.76041 5.73595 3.35416 4.854 4.10416 4.104C4.85416 3.354 5.7361 2.76025 6.74999 2.32275C7.76388 1.88525 8.84721 1.6665 9.99999 1.6665C11.1528 1.6665 12.2361 1.88525 13.25 2.32275C14.2639 2.76025 15.1458 3.354 15.8958 4.104C16.6458 4.854 17.2396 5.73595 17.6771 6.74984C18.1146 7.76373 18.3333 8.84706 18.3333 9.99984C18.3333 11.1526 18.1146 12.2359 17.6771 13.2498C17.2396 14.2637 16.6458 15.1457 15.8958 15.8957C15.1458 16.6457 14.2639 17.2394 13.25 17.6769C12.2361 18.1144 11.1528 18.3332 9.99999 18.3332Z" fill="#1A74E8"/>
</g>
</g>
</svg>
