<svg width="16" height="17" viewBox="0 0 16 17" fill="none" xmlns="http://www.w3.org/2000/svg">
<g id="sell">
<mask id="mask0_1096_2192" style="mask-type:alpha" maskUnits="userSpaceOnUse" x="0" y="0" width="16" height="17">
<rect id="Bounding box" y="0.5" width="16" height="16" fill="#D9D9D9"/>
</mask>
<g mask="url(#mask0_1096_2192)">
<path id="sell_2" d="M14.05 9.84998L9.36667 14.55C9.24445 14.6722 9.11112 14.7611 8.96667 14.8166C8.82223 14.8722 8.67223 14.9 8.51667 14.9C8.36112 14.9 8.21112 14.8722 8.06667 14.8166C7.92223 14.7611 7.7889 14.6722 7.66667 14.55L1.94501 8.82831C1.82612 8.70942 1.73889 8.57836 1.68334 8.43514C1.62778 8.29192 1.60001 8.14131 1.60001 7.98331V3.29998C1.60001 2.96998 1.71751 2.68748 1.95251 2.45248C2.18751 2.21748 2.47001 2.09998 2.80001 2.09998H7.48334C7.6379 2.09998 7.78767 2.12775 7.93267 2.18331C8.07756 2.23886 8.20962 2.32609 8.32884 2.44498L14.05 8.16664C14.1722 8.28886 14.2611 8.41942 14.3167 8.55831C14.3722 8.6972 14.4 8.84442 14.4 8.99998C14.4 9.15553 14.3721 9.30603 14.3163 9.45148C14.2606 9.59681 14.1718 9.72964 14.05 9.84998ZM8.51667 13.7L13.2 9.01664L7.48334 3.29998H2.80001V7.98331L8.51667 13.7ZM4.40001 5.89998C4.67778 5.89998 4.9139 5.80275 5.10834 5.60831C5.30278 5.41386 5.40001 5.17775 5.40001 4.89998C5.40001 4.6222 5.30278 4.38609 5.10834 4.19164C4.9139 3.9972 4.67778 3.89998 4.40001 3.89998C4.12223 3.89998 3.88612 3.9972 3.69167 4.19164C3.49723 4.38609 3.40001 4.6222 3.40001 4.89998C3.40001 5.17775 3.49723 5.41386 3.69167 5.60831C3.88612 5.80275 4.12223 5.89998 4.40001 5.89998Z" fill="#B7B7B7"/>
</g>
</g>
</svg>
