<svg width="16" height="16" viewBox="0 0 16 16" fill="none" xmlns="http://www.w3.org/2000/svg">
<g id="history">
<mask id="mask0_1010_2558" style="mask-type:alpha" maskUnits="userSpaceOnUse" x="0" y="0" width="16" height="16">
<rect id="Bounding box" width="16" height="16" fill="#D9D9D9"/>
</mask>
<g mask="url(#mask0_1010_2558)">
<path id="history_2" d="M7.99999 13.5999C6.53333 13.5999 5.27499 13.1138 4.22499 12.1416C3.17499 11.1693 2.57777 9.97212 2.43333 8.5499C2.41111 8.39435 2.45833 8.26379 2.57499 8.15824C2.69166 8.05268 2.83299 7.9999 2.99899 7.9999C3.15522 7.9999 3.29444 8.04435 3.41666 8.13324C3.53888 8.22213 3.61111 8.34435 3.63333 8.4999C3.75555 9.5999 4.23055 10.5249 5.05833 11.2749C5.88611 12.0249 6.86666 12.3999 7.99999 12.3999C9.2111 12.3999 10.2472 11.9693 11.1083 11.1082C11.9694 10.2471 12.4 9.21101 12.4 7.9999C12.4 6.78879 11.9694 5.75268 11.1083 4.89157C10.2472 4.03046 9.2111 3.5999 7.99999 3.5999C7.31111 3.5999 6.67472 3.74212 6.09083 4.02657C5.50705 4.31101 5.01566 4.70212 4.61666 5.1999H5.79999C5.96999 5.1999 6.11249 5.25707 6.22749 5.3714C6.34249 5.48574 6.39999 5.6274 6.39999 5.7964C6.39999 5.9654 6.34249 6.10824 6.22749 6.2249C6.11249 6.34157 5.96999 6.3999 5.79999 6.3999H2.99999C2.82999 6.3999 2.68749 6.3424 2.57249 6.2274C2.45749 6.1124 2.39999 5.9699 2.39999 5.7999V2.9999C2.39999 2.8299 2.45716 2.6874 2.57149 2.5724C2.68583 2.4574 2.82749 2.3999 2.99649 2.3999C3.16549 2.3999 3.30833 2.4574 3.42499 2.5724C3.54166 2.6874 3.59999 2.8299 3.59999 2.9999V4.56657C4.11111 3.8999 4.74722 3.37212 5.50833 2.98324C6.26944 2.59435 7.09999 2.3999 7.99999 2.3999C8.77777 2.3999 9.50627 2.54768 10.1855 2.84324C10.8648 3.13879 11.4559 3.53807 11.9588 4.04107C12.4618 4.54396 12.8611 5.13507 13.1567 5.8144C13.4522 6.49362 13.6 7.22212 13.6 7.9999C13.6 8.77768 13.4522 9.50618 13.1567 10.1854C12.8611 10.8647 12.4618 11.4558 11.9588 11.9587C11.4559 12.4617 10.8648 12.861 10.1855 13.1566C9.50627 13.4521 8.77777 13.5999 7.99999 13.5999ZM8.59999 7.4999L10.1 8.9999C10.2222 9.12212 10.2805 9.26101 10.275 9.41657C10.2694 9.57212 10.2055 9.71101 10.0833 9.83324C9.96111 9.95546 9.81944 10.0166 9.65833 10.0166C9.49722 10.0166 9.35555 9.95546 9.23333 9.83324L7.58816 8.18807C7.52938 8.12929 7.48333 8.06274 7.44999 7.9884C7.41666 7.91407 7.39999 7.83729 7.39999 7.75807V5.39457C7.39999 5.22601 7.45833 5.08479 7.57499 4.9709C7.69166 4.8569 7.83333 4.7999 7.99999 4.7999C8.16666 4.7999 8.30833 4.8574 8.42499 4.9724C8.54166 5.0874 8.59999 5.2299 8.59999 5.3999V7.4999Z" fill="#B7B7B7"/>
</g>
</g>
</svg>
