<svg width="14" height="14" viewBox="0 0 14 14" fill="none" xmlns="http://www.w3.org/2000/svg">
<g id="info">
<mask id="mask0_1424_3326" style="mask-type:alpha" maskUnits="userSpaceOnUse" x="0" y="0" width="14" height="14">
<rect id="Bounding box" width="14" height="14" fill="#D9D9D9"/>
</mask>
<g mask="url(#mask0_1424_3326)">
<path id="info_2" d="M7.00008 9.91669C7.16536 9.91669 7.3039 9.86079 7.41571 9.74898C7.52751 9.63717 7.58342 9.49863 7.58342 9.33335V7.00002C7.58342 6.83474 7.52751 6.6962 7.41571 6.5844C7.3039 6.47259 7.16536 6.41669 7.00008 6.41669C6.8348 6.41669 6.69626 6.47259 6.58446 6.5844C6.47265 6.6962 6.41675 6.83474 6.41675 7.00002V9.33335C6.41675 9.49863 6.47265 9.63717 6.58446 9.74898C6.69626 9.86079 6.8348 9.91669 7.00008 9.91669ZM7.00008 5.25002C7.16536 5.25002 7.3039 5.19412 7.41571 5.08231C7.52751 4.97051 7.58342 4.83196 7.58342 4.66669C7.58342 4.50141 7.52751 4.36287 7.41571 4.25106C7.3039 4.13926 7.16536 4.08335 7.00008 4.08335C6.8348 4.08335 6.69626 4.13926 6.58446 4.25106C6.47265 4.36287 6.41675 4.50141 6.41675 4.66669C6.41675 4.83196 6.47265 4.97051 6.58446 5.08231C6.69626 5.19412 6.8348 5.25002 7.00008 5.25002ZM7.00008 12.8334C6.19314 12.8334 5.4348 12.6802 4.72508 12.374C4.01536 12.0677 3.398 11.6521 2.873 11.1271C2.348 10.6021 1.93237 9.98474 1.62612 9.27502C1.31987 8.5653 1.16675 7.80697 1.16675 7.00002C1.16675 6.19308 1.31987 5.43474 1.62612 4.72502C1.93237 4.0153 2.348 3.39794 2.873 2.87294C3.398 2.34794 4.01536 1.93231 4.72508 1.62606C5.4348 1.31981 6.19314 1.16669 7.00008 1.16669C7.80703 1.16669 8.56536 1.31981 9.27508 1.62606C9.9848 1.93231 10.6022 2.34794 11.1272 2.87294C11.6522 3.39794 12.0678 4.0153 12.374 4.72502C12.6803 5.43474 12.8334 6.19308 12.8334 7.00002C12.8334 7.80697 12.6803 8.5653 12.374 9.27502C12.0678 9.98474 11.6522 10.6021 11.1272 11.1271C10.6022 11.6521 9.9848 12.0677 9.27508 12.374C8.56536 12.6802 7.80703 12.8334 7.00008 12.8334ZM7.00008 11.6667C8.30286 11.6667 9.40633 11.2146 10.3105 10.3104C11.2147 9.40627 11.6667 8.3028 11.6667 7.00002C11.6667 5.69724 11.2147 4.59377 10.3105 3.6896C9.40633 2.78544 8.30286 2.33335 7.00008 2.33335C5.6973 2.33335 4.59383 2.78544 3.68967 3.6896C2.7855 4.59377 2.33341 5.69724 2.33341 7.00002C2.33341 8.3028 2.7855 9.40627 3.68967 10.3104C4.59383 11.2146 5.6973 11.6667 7.00008 11.6667Z" fill="#202020"/>
</g>
</g>
</svg>
