<svg width="16" height="17" viewBox="0 0 16 17" fill="none" xmlns="http://www.w3.org/2000/svg">
<g id="distance">
<mask id="mask0_1096_2187" style="mask-type:alpha" maskUnits="userSpaceOnUse" x="0" y="0" width="16" height="17">
<rect id="Bounding box" y="0.5" width="16" height="16" fill="#D9D9D9"/>
</mask>
<g mask="url(#mask0_1096_2187)">
<path id="distance_2" d="M8.00001 14.9C6.80001 14.9 5.83334 14.725 5.10001 14.375C4.36667 14.025 4.00001 13.5666 4.00001 13C4.00001 12.8111 4.04723 12.6297 4.14167 12.4558C4.23612 12.2819 4.37778 12.1189 4.56667 11.9666C4.71112 11.8778 4.86667 11.8555 5.03334 11.9C5.20001 11.9444 5.32778 12.0389 5.41667 12.1833C5.50556 12.3278 5.52778 12.4805 5.48334 12.6416C5.4389 12.8028 5.34445 12.9278 5.20001 13.0166C5.2889 13.1722 5.63334 13.325 6.23334 13.475C6.83334 13.625 7.42223 13.7 8.00001 13.7C8.57778 13.7 9.16667 13.625 9.76667 13.475C10.3667 13.325 10.7111 13.1722 10.8 13.0166C10.6556 12.9278 10.5611 12.8028 10.5167 12.6416C10.4722 12.4805 10.4945 12.3278 10.5833 12.1833C10.6722 12.0389 10.8 11.9444 10.9667 11.9C11.1333 11.8555 11.2889 11.8778 11.4333 11.9666C11.6222 12.1189 11.7639 12.2819 11.8583 12.4558C11.9528 12.6297 12 12.8111 12 13C12 13.5666 11.6333 14.025 10.9 14.375C10.1667 14.725 9.20001 14.9 8.00001 14.9ZM8.01667 11.4C9.07223 10.6222 9.86667 9.82498 10.4 9.00831C10.9333 8.19164 11.2 7.38836 11.2 6.59848C11.2 5.50959 10.8556 4.68764 10.1667 4.13264C9.47778 3.57753 8.75556 3.29998 8.00001 3.29998C7.24445 3.29998 6.52223 3.57831 5.83334 4.13498C5.14445 4.69153 4.80001 5.5157 4.80001 6.60748C4.80001 7.3247 5.06667 8.08609 5.60001 8.89164C6.13334 9.6972 6.9389 10.5333 8.01667 11.4ZM8.00001 12.6166C7.87778 12.6166 7.75556 12.5972 7.63334 12.5583C7.51112 12.5194 7.40001 12.4555 7.30001 12.3666C6.05556 11.3666 5.12778 10.3805 4.51667 9.40831C3.90556 8.43609 3.60001 7.50114 3.60001 6.60348C3.60001 5.86248 3.73334 5.21275 4.00001 4.65431C4.26667 4.09586 4.61112 3.62775 5.03334 3.24998C5.45556 2.8722 5.92762 2.58609 6.44951 2.39164C6.9714 2.1972 7.48806 2.09998 7.99951 2.09998C8.51095 2.09998 9.02778 2.1972 9.55001 2.39164C10.0722 2.58609 10.5437 2.87214 10.9643 3.24981C11.3851 3.62748 11.7296 4.09692 11.9977 4.65814C12.2659 5.21936 12.4 5.86931 12.4 6.60798C12.4 7.50264 12.0945 8.43609 11.4833 9.40831C10.8722 10.3805 9.94445 11.3666 8.70001 12.3666C8.60001 12.4555 8.4889 12.5194 8.36667 12.5583C8.24445 12.5972 8.12223 12.6166 8.00001 12.6166ZM8.00351 7.69998C8.33451 7.69998 8.61667 7.58214 8.85001 7.34648C9.08334 7.11081 9.20001 6.82748 9.20001 6.49648C9.20001 6.16548 9.08217 5.88331 8.84651 5.64998C8.61084 5.41664 8.32751 5.29998 7.99651 5.29998C7.66551 5.29998 7.38334 5.41942 7.15001 5.65831C6.91667 5.8972 6.80001 6.17775 6.80001 6.49998C6.80001 6.8222 6.91784 7.10275 7.15351 7.34164C7.38917 7.58053 7.67251 7.69998 8.00351 7.69998Z" fill="#B7B7B7"/>
</g>
</g>
</svg>
