<svg width="16" height="16" viewBox="0 0 16 16" fill="none" xmlns="http://www.w3.org/2000/svg">
<g id="lock_clock">
<mask id="mask0_1010_2344" style="mask-type:alpha" maskUnits="userSpaceOnUse" x="0" y="0" width="16" height="16">
<rect id="Bounding box" width="16" height="16" fill="#D9D9D9"/>
</mask>
<g mask="url(#mask0_1010_2344)">
<path id="lock_clock_2" d="M6.00001 5.60005H10V4.00005C10 3.44449 9.80557 2.97227 9.41668 2.58338C9.02779 2.19449 8.55557 2.00005 8.00001 2.00005C7.44446 2.00005 6.97223 2.19449 6.58335 2.58338C6.19446 2.97227 6.00001 3.44449 6.00001 4.00005V5.60005ZM4.40001 14.4C4.07001 14.4 3.78751 14.2825 3.55251 14.0475C3.31751 13.8125 3.20001 13.53 3.20001 13.2V6.80005C3.20001 6.47005 3.31751 6.18755 3.55251 5.95255C3.78751 5.71755 4.07001 5.60005 4.40001 5.60005H4.80001V4.00005C4.80001 3.11472 5.1124 2.36005 5.73718 1.73605C6.36185 1.11205 7.1174 0.800049 8.00385 0.800049C8.89018 0.800049 9.64446 1.11205 10.2667 1.73605C10.8889 2.36005 11.2 3.11472 11.2 4.00005V5.60005H11.6C11.93 5.60005 12.2125 5.71755 12.4475 5.95255C12.6825 6.18755 12.8 6.47005 12.8 6.80005V7.00005C12.8 7.20005 12.7375 7.35005 12.6125 7.45005C12.4875 7.55005 12.35 7.60005 12.2 7.60005C12.05 7.60005 11.9125 7.55005 11.7875 7.45005C11.6625 7.35005 11.6 7.20005 11.6 7.00005V6.80005H4.40001V13.2H6.60001C6.77001 13.2 6.91251 13.2572 7.02751 13.3715C7.14251 13.4859 7.20001 13.6275 7.20001 13.7965C7.20001 13.9655 7.14251 14.1084 7.02751 14.225C6.91251 14.3417 6.77001 14.4 6.60001 14.4H4.40001ZM11.1962 15.2C10.3098 15.2 9.55557 14.8877 8.93335 14.2629C8.31112 13.6382 8.00001 12.8827 8.00001 11.9962C8.00001 11.1099 8.3124 10.3556 8.93718 9.73338C9.56185 9.11116 10.3174 8.80005 11.2038 8.80005C12.0902 8.80005 12.8445 9.11244 13.4667 9.73722C14.0889 10.3619 14.4 11.1174 14.4 12.0039C14.4 12.8902 14.0876 13.6445 13.4628 14.2667C12.8382 14.8889 12.0826 15.2 11.1962 15.2ZM11.6 11.8334V10.8C11.6 10.6934 11.56 10.6 11.48 10.52C11.4 10.44 11.3067 10.4 11.2 10.4C11.0933 10.4 11 10.44 10.92 10.52C10.84 10.6 10.8 10.6934 10.8 10.8V11.9167C10.8 12.0056 10.8167 12.0862 10.85 12.1584C10.8833 12.2306 10.9283 12.295 10.9848 12.3515L11.8333 13.2C11.9151 13.2778 12.0106 13.3167 12.1197 13.3167C12.2288 13.3167 12.3222 13.2778 12.4 13.2C12.4778 13.1223 12.5167 13.0288 12.5167 12.9197C12.5167 12.8106 12.4778 12.7152 12.4 12.6334L11.6 11.8334Z" fill="#1A74E8"/>
</g>
</g>
</svg>
