<svg width="16" height="16" viewBox="0 0 16 16" fill="none" xmlns="http://www.w3.org/2000/svg">
<g id="lock_open">
<mask id="mask0_1010_2552" style="mask-type:alpha" maskUnits="userSpaceOnUse" x="0" y="0" width="16" height="16">
<rect id="Bounding box" width="16" height="16" fill="#D9D9D9"/>
</mask>
<g mask="url(#mask0_1010_2552)">
<path id="lock_open_2" d="M4.39535 14.4C4.06512 14.4 3.78335 14.2825 3.55001 14.0475C3.31668 13.8125 3.20001 13.53 3.20001 13.2V6.80005C3.20001 6.47005 3.31751 6.18755 3.55251 5.95255C3.78751 5.71755 4.07001 5.60005 4.40001 5.60005H10V4.00005C10 3.44449 9.80557 2.97227 9.41668 2.58338C9.02779 2.19449 8.55557 2.00005 8.00001 2.00005C7.53335 2.00005 7.12223 2.14449 6.76668 2.43338C6.41112 2.72227 6.17779 3.08338 6.06668 3.51672C6.03335 3.67227 5.95246 3.79172 5.82401 3.87505C5.69557 3.95838 5.55423 4.00005 5.40001 4.00005C5.23479 4.00005 5.09623 3.93616 4.98435 3.80838C4.87257 3.6806 4.83257 3.5376 4.86435 3.37938C5.0129 2.65149 5.37901 2.0396 5.96268 1.54372C6.54635 1.04794 7.22546 0.800049 8.00001 0.800049C8.88535 0.800049 9.64001 1.11205 10.264 1.73605C10.888 2.36005 11.2 3.11472 11.2 4.00005V5.60005H11.6C11.93 5.60005 12.2125 5.71755 12.4475 5.95255C12.6825 6.18755 12.8 6.47005 12.8 6.80005V13.2C12.8 13.53 12.6825 13.8125 12.4473 14.0475C12.2122 14.2825 11.9296 14.4 11.5993 14.4H4.39535ZM4.40001 13.2H11.6V6.80005H4.40001V13.2ZM8.00351 11.2C8.33451 11.2 8.61668 11.0822 8.85001 10.8465C9.08335 10.6109 9.20001 10.3275 9.20001 9.99655C9.20001 9.66555 9.08218 9.38338 8.84651 9.15005C8.61085 8.91672 8.32751 8.80005 7.99651 8.80005C7.66551 8.80005 7.38335 8.91788 7.15001 9.15355C6.91668 9.38922 6.80001 9.67255 6.80001 10.0035C6.80001 10.3345 6.91785 10.6167 7.15351 10.85C7.38918 11.0834 7.67251 11.2 8.00351 11.2Z" fill="#B7B7B7"/>
</g>
</g>
</svg>
