<svg width="16" height="16" viewBox="0 0 16 16" fill="none" xmlns="http://www.w3.org/2000/svg">
<g id="person">
<mask id="mask0_2002_1408" style="mask-type:alpha" maskUnits="userSpaceOnUse" x="0" y="0" width="16" height="16">
<rect id="Bounding box" width="16" height="16" fill="#D9D9D9"/>
</mask>
<g mask="url(#mask0_2002_1408)">
<path id="person_2" d="M8.00008 7.99996C7.26675 7.99996 6.63897 7.73885 6.11675 7.21663C5.59453 6.6944 5.33341 6.06663 5.33341 5.33329C5.33341 4.59996 5.59453 3.97218 6.11675 3.44996C6.63897 2.92774 7.26675 2.66663 8.00008 2.66663C8.73342 2.66663 9.36119 2.92774 9.88341 3.44996C10.4056 3.97218 10.6667 4.59996 10.6667 5.33329C10.6667 6.06663 10.4056 6.6944 9.88341 7.21663C9.36119 7.73885 8.73342 7.99996 8.00008 7.99996ZM2.66675 12V11.4666C2.66675 11.0888 2.76397 10.7416 2.95841 10.425C3.15286 10.1083 3.41119 9.86663 3.73341 9.69996C4.4223 9.35552 5.1223 9.09718 5.83341 8.92496C6.54453 8.75274 7.26675 8.66663 8.00008 8.66663C8.73342 8.66663 9.45564 8.75274 10.1667 8.92496C10.8779 9.09718 11.5779 9.35552 12.2667 9.69996C12.589 9.86663 12.8473 10.1083 13.0417 10.425C13.2362 10.7416 13.3334 11.0888 13.3334 11.4666V12C13.3334 12.3666 13.2029 12.6805 12.9417 12.9416C12.6806 13.2027 12.3667 13.3333 12.0001 13.3333H4.00008C3.63341 13.3333 3.31953 13.2027 3.05841 12.9416C2.7973 12.6805 2.66675 12.3666 2.66675 12ZM4.00008 12H12.0001V11.4666C12.0001 11.3444 11.9695 11.2333 11.9084 11.1333C11.8473 11.0333 11.7667 10.9555 11.6667 10.9C11.0667 10.6 10.4612 10.375 9.85008 10.225C9.23897 10.075 8.6223 9.99996 8.00008 9.99996C7.37786 9.99996 6.76119 10.075 6.15008 10.225C5.53897 10.375 4.93341 10.6 4.33341 10.9C4.23341 10.9555 4.15286 11.0333 4.09175 11.1333C4.03064 11.2333 4.00008 11.3444 4.00008 11.4666V12ZM8.00008 6.66663C8.36675 6.66663 8.68064 6.53607 8.94175 6.27496C9.20286 6.01385 9.33342 5.69996 9.33342 5.33329C9.33342 4.96663 9.20286 4.65274 8.94175 4.39163C8.68064 4.13051 8.36675 3.99996 8.00008 3.99996C7.63341 3.99996 7.31953 4.13051 7.05841 4.39163C6.7973 4.65274 6.66675 4.96663 6.66675 5.33329C6.66675 5.69996 6.7973 6.01385 7.05841 6.27496C7.31953 6.53607 7.63341 6.66663 8.00008 6.66663Z" fill="#7E7E7E"/>
</g>
</g>
</svg>
