<svg width="16" height="17" viewBox="0 0 16 17" fill="none" xmlns="http://www.w3.org/2000/svg">
<g id="workspace_premium">
<mask id="mask0_1096_2182" style="mask-type:alpha" maskUnits="userSpaceOnUse" x="0" y="0" width="16" height="17">
<rect id="Bounding box" y="0.5" width="16" height="16" fill="#D9D9D9"/>
</mask>
<g mask="url(#mask0_1096_2182)">
<path id="workspace_premium_2" d="M7.99999 8.44998L6.88332 9.29998C6.82777 9.34442 6.76943 9.34442 6.70832 9.29998C6.64721 9.25553 6.62777 9.19998 6.64999 9.13331L7.08332 7.74998L5.93332 6.84998C5.87777 6.80553 5.8611 6.74998 5.88332 6.68331C5.90554 6.61664 5.95554 6.58331 6.03332 6.58331H7.41665L7.84999 5.21664C7.87221 5.14998 7.92221 5.11664 7.99999 5.11664C8.07777 5.11664 8.12777 5.14998 8.14999 5.21664L8.58332 6.58331H9.96665C10.0444 6.58331 10.0944 6.61664 10.1167 6.68331C10.1389 6.74998 10.1222 6.80553 10.0667 6.84998L8.91665 7.74998L9.34999 9.13331C9.37221 9.19998 9.35277 9.25553 9.29165 9.29998C9.23054 9.34442 9.17221 9.34442 9.11665 9.29998L7.99999 8.44998ZM7.99999 14.9L5.11665 15.5333C4.92777 15.5778 4.75832 15.5389 4.60832 15.4166C4.45832 15.2944 4.38332 15.1389 4.38332 14.95V11.0333C3.90554 10.6222 3.52221 10.0722 3.23332 9.38331C2.94443 8.69442 2.79999 7.99998 2.79999 7.29998C2.79999 5.85553 3.30554 4.62775 4.31665 3.61664C5.32777 2.60553 6.55554 2.09998 7.99999 2.09998C9.44443 2.09998 10.6722 2.60553 11.6833 3.61664C12.6944 4.62775 13.2 5.85553 13.2 7.29998C13.2 8.01109 13.0667 8.70831 12.8 9.39164C12.5333 10.075 12.1333 10.6278 11.6 11.05V14.95C11.6 15.1389 11.525 15.2944 11.375 15.4166C11.225 15.5389 11.0555 15.5778 10.8667 15.5333L7.99999 14.9ZM7.99999 11.3C9.1111 11.3 10.0555 10.9111 10.8333 10.1333C11.6111 9.35553 12 8.41109 12 7.29998C12 6.18886 11.6111 5.24442 10.8333 4.46664C10.0555 3.68886 9.1111 3.29998 7.99999 3.29998C6.88888 3.29998 5.94443 3.68886 5.16665 4.46664C4.38888 5.24442 3.99999 6.18886 3.99999 7.29998C3.99999 8.41109 4.38888 9.35553 5.16665 10.1333C5.94443 10.9111 6.88888 11.3 7.99999 11.3ZM5.58332 14.2L7.99999 13.6666L10.4 14.2V11.9C10.0333 12.1 9.64721 12.25 9.24165 12.35C8.8361 12.45 8.42221 12.5 7.99999 12.5C7.57777 12.5 7.1611 12.4528 6.74999 12.3583C6.33888 12.2639 5.94999 12.1111 5.58332 11.9V14.2Z" fill="#B7B7B7"/>
</g>
</g>
</svg>
