<svg width="16" height="16" viewBox="0 0 16 16" fill="none" xmlns="http://www.w3.org/2000/svg">
<g id="refresh">
<mask id="mask0_1232_3047" style="mask-type:alpha" maskUnits="userSpaceOnUse" x="0" y="0" width="16" height="16">
<rect id="Bounding box" width="16" height="16" fill="#D9D9D9"/>
</mask>
<g mask="url(#mask0_1232_3047)">
<path id="refresh_2" d="M7.99999 13.3333C6.5111 13.3333 5.24999 12.8166 4.21666 11.7833C3.18332 10.75 2.66666 9.48885 2.66666 7.99996C2.66666 6.51107 3.18332 5.24996 4.21666 4.21663C5.24999 3.18329 6.5111 2.66663 7.99999 2.66663C8.76666 2.66663 9.49999 2.82496 10.2 3.14163C10.9 3.45829 11.5 3.91107 12 4.49996V3.33329C12 3.1444 12.0639 2.98607 12.1917 2.85829C12.3194 2.73051 12.4778 2.66663 12.6667 2.66663C12.8555 2.66663 13.0139 2.73051 13.1417 2.85829C13.2694 2.98607 13.3333 3.1444 13.3333 3.33329V6.66663C13.3333 6.85552 13.2694 7.01385 13.1417 7.14163C13.0139 7.2694 12.8555 7.33329 12.6667 7.33329H9.33332C9.14443 7.33329 8.9861 7.2694 8.85832 7.14163C8.73055 7.01385 8.66666 6.85552 8.66666 6.66663C8.66666 6.47774 8.73055 6.3194 8.85832 6.19163C8.9861 6.06385 9.14443 5.99996 9.33332 5.99996H11.4667C11.1111 5.37774 10.625 4.88885 10.0083 4.53329C9.39166 4.17774 8.72221 3.99996 7.99999 3.99996C6.88888 3.99996 5.94443 4.38885 5.16666 5.16663C4.38888 5.9444 3.99999 6.88885 3.99999 7.99996C3.99999 9.11107 4.38888 10.0555 5.16666 10.8333C5.94443 11.6111 6.88888 12 7.99999 12C8.75555 12 9.44721 11.8083 10.075 11.425C10.7028 11.0416 11.1889 10.5277 11.5333 9.88329C11.6222 9.72774 11.7472 9.6194 11.9083 9.55829C12.0694 9.49718 12.2333 9.4944 12.4 9.54996C12.5778 9.60552 12.7055 9.72218 12.7833 9.89996C12.8611 10.0777 12.8555 10.2444 12.7667 10.4C12.3111 11.2888 11.6611 12 10.8167 12.5333C9.97221 13.0666 9.03332 13.3333 7.99999 13.3333Z" fill="#7E7E7E"/>
</g>
</g>
</svg>
