<svg width="16" height="16" viewBox="0 0 16 16" fill="none" xmlns="http://www.w3.org/2000/svg">
<g id="exit_to_app">
<mask id="mask0_1560_1047" style="mask-type:alpha" maskUnits="userSpaceOnUse" x="0" y="0" width="16" height="16">
<rect id="Bounding box" width="16" height="16" fill="#D9D9D9"/>
</mask>
<g mask="url(#mask0_1560_1047)">
<path id="exit_to_app_2" d="M3.33333 14C2.96667 14 2.65278 13.8694 2.39167 13.6083C2.13056 13.3472 2 13.0333 2 12.6667V10.6667C2 10.4778 2.06389 10.3194 2.19167 10.1917C2.31944 10.0639 2.47778 10 2.66667 10C2.85556 10 3.01389 10.0639 3.14167 10.1917C3.26944 10.3194 3.33333 10.4778 3.33333 10.6667V12.6667H12.6667V3.33333H3.33333V5.33333C3.33333 5.52222 3.26944 5.68056 3.14167 5.80833C3.01389 5.93611 2.85556 6 2.66667 6C2.47778 6 2.31944 5.93611 2.19167 5.80833C2.06389 5.68056 2 5.52222 2 5.33333V3.33333C2 2.96667 2.13056 2.65278 2.39167 2.39167C2.65278 2.13056 2.96667 2 3.33333 2H12.6667C13.0333 2 13.3472 2.13056 13.6083 2.39167C13.8694 2.65278 14 2.96667 14 3.33333V12.6667C14 13.0333 13.8694 13.3472 13.6083 13.6083C13.3472 13.8694 13.0333 14 12.6667 14H3.33333ZM7.76667 8.66667H2.66667C2.47778 8.66667 2.31944 8.60278 2.19167 8.475C2.06389 8.34722 2 8.18889 2 8C2 7.81111 2.06389 7.65278 2.19167 7.525C2.31944 7.39722 2.47778 7.33333 2.66667 7.33333H7.76667L6.53333 6.1C6.4 5.96667 6.33611 5.81111 6.34167 5.63333C6.34722 5.45556 6.41111 5.3 6.53333 5.16667C6.66667 5.03333 6.825 4.96389 7.00833 4.95833C7.19167 4.95278 7.35 5.01667 7.48333 5.15L9.86667 7.53333C9.93333 7.6 9.98056 7.67222 10.0083 7.75C10.0361 7.82778 10.05 7.91111 10.05 8C10.05 8.08889 10.0361 8.17222 10.0083 8.25C9.98056 8.32778 9.93333 8.4 9.86667 8.46667L7.48333 10.85C7.35 10.9833 7.19167 11.0472 7.00833 11.0417C6.825 11.0361 6.66667 10.9667 6.53333 10.8333C6.41111 10.7 6.34722 10.5444 6.34167 10.3667C6.33611 10.1889 6.4 10.0333 6.53333 9.9L7.76667 8.66667Z" fill="#7E7E7E"/>
</g>
</g>
</svg>
