<svg width="12" height="12" viewBox="0 0 12 12" fill="none" xmlns="http://www.w3.org/2000/svg">
<g id="block">
<mask id="mask0_1207_347" style="mask-type:alpha" maskUnits="userSpaceOnUse" x="0" y="0" width="12" height="12">
<rect id="Bounding box" width="12" height="12" fill="#D9D9D9"/>
</mask>
<g mask="url(#mask0_1207_347)">
<path id="block_2" d="M5.99998 10.8002C5.34165 10.8002 4.72082 10.6752 4.13748 10.4252C3.55415 10.1752 3.04373 9.83145 2.60623 9.39395C2.16873 8.95645 1.82498 8.44603 1.57498 7.8627C1.32498 7.27936 1.19998 6.65853 1.19998 6.0002C1.19998 5.33353 1.32498 4.71061 1.57498 4.13145C1.82498 3.55228 2.16873 3.04395 2.60623 2.60645C3.04373 2.16895 3.55415 1.8252 4.13748 1.5752C4.72082 1.3252 5.34165 1.2002 5.99998 1.2002C6.66665 1.2002 7.28957 1.3252 7.86873 1.5752C8.4479 1.8252 8.95623 2.16895 9.39373 2.60645C9.83123 3.04395 10.175 3.55228 10.425 4.13145C10.675 4.71061 10.8 5.33353 10.8 6.0002C10.8 6.65853 10.675 7.27936 10.425 7.8627C10.175 8.44603 9.83123 8.95645 9.39373 9.39395C8.95623 9.83145 8.4479 10.1752 7.86873 10.4252C7.28957 10.6752 6.66665 10.8002 5.99998 10.8002ZM5.99998 9.9002C6.45832 9.9002 6.89165 9.8252 7.29998 9.6752C7.70832 9.5252 8.07915 9.31686 8.41248 9.0502L2.94998 3.5877C2.68332 3.92103 2.47498 4.29186 2.32498 4.7002C2.17498 5.10853 2.09998 5.54186 2.09998 6.0002C2.09998 7.08353 2.47915 8.00436 3.23748 8.7627C3.99582 9.52103 4.91665 9.9002 5.99998 9.9002ZM9.04998 8.4127C9.31665 8.07936 9.52498 7.70853 9.67498 7.3002C9.82498 6.89186 9.89998 6.45853 9.89998 6.0002C9.89998 4.91686 9.52082 3.99603 8.76248 3.2377C8.00415 2.47936 7.08332 2.1002 5.99998 2.1002C5.54165 2.1002 5.10832 2.1752 4.69998 2.3252C4.29165 2.4752 3.92082 2.68353 3.58748 2.9502L9.04998 8.4127Z" fill="#E53935"/>
</g>
</g>
</svg>
