<svg width="512" height="512" viewBox="0 0 512 512" fill="none" xmlns="http://www.w3.org/2000/svg">
<rect width="512" height="512" fill="#FCFCFC"/>
<path d="M208.1 131.9C208.233 132.633 208.333 133.333 208.4 134C208.533 134.667 208.533 135.4 208.4 136.2C208.4 136.933 208.367 137.633 208.3 138.3C208.3 138.9 208.233 139.567 208.1 140.3C207.767 142.833 206.967 145.1 205.7 147.1C204.5 149.1 202.667 150.8 200.2 152.2C197.933 153.533 195.2 154.567 192 155.3C188.8 156.033 185.2 156.4 181.2 156.4H174.4C173.133 156.4 171.867 156.4 170.6 156.4C169.4 156.4 168.167 156.333 166.9 156.2C165.567 156.133 164.267 156 163 155.8C161.8 155.6 160.6 155.367 159.4 155.1C158.267 154.9 157.167 154.633 156.1 154.3C155.033 153.9 154 153.433 153 152.9C151.267 151.767 149.767 150.6 148.5 149.4C147.3 148.133 146.4 146.7 145.8 145.1C145.067 143.567 144.533 142 144.2 140.4C143.867 138.8 143.7 137.1 143.7 135.3C143.7 133.567 143.867 131.933 144.2 130.4C144.533 128.867 145.067 127.5 145.8 126.3C146.533 124.967 147.5 123.733 148.7 122.6C149.9 121.4 151.3 120.267 152.9 119.2C153.633 118.667 154.433 118.233 155.3 117.9C156.233 117.567 157.3 117.233 158.5 116.9C160.7 116.3 163.133 115.733 165.8 115.2C167.133 114.933 168.4 114.767 169.6 114.7C170.867 114.567 172.133 114.467 173.4 114.4C175.8 114.2 177.867 114.2 179.6 114.4C181.2 114.467 182.633 114.567 183.9 114.7C185.233 114.767 186.567 114.933 187.9 115.2C189.033 115.467 190.267 115.8 191.6 116.2C193 116.533 194.367 116.967 195.7 117.5C196.3 117.767 196.933 118.067 197.6 118.4C198.267 118.733 198.967 119.133 199.7 119.6C201.567 120.733 202.867 121.8 203.6 122.8C204.2 123.6 204.733 124.4 205.2 125.2C205.733 125.933 206.167 126.667 206.5 127.4C206.9 128.067 207.233 128.8 207.5 129.6C207.767 130.4 207.967 131.167 208.1 131.9ZM147.8 175.3C146.267 175.3 144.8 175.067 143.4 174.6C142.067 174.467 141 173.667 140.2 172.2C139.733 171.667 139.4 171.1 139.2 170.5C139.067 169.9 139 169.3 139 168.7C139 167.367 139.533 166.167 140.6 165.1C140.8 164.9 141.067 164.7 141.4 164.5C141.733 164.3 142.133 164.167 142.6 164.1C142.933 163.833 143.267 163.7 143.6 163.7C144 163.633 144.433 163.533 144.9 163.4C145.233 163.267 145.533 163.2 145.8 163.2C146.067 163.2 146.367 163.2 146.7 163.2H205.9C206.567 163.2 207.133 163.267 207.6 163.4C208.133 163.467 208.7 163.6 209.3 163.8C210.367 164.2 211.267 164.833 212 165.7C212.4 166.167 212.633 166.667 212.7 167.2C212.833 167.667 212.9 168.267 212.9 169C212.9 170.867 212.367 172.1 211.3 172.7C210.767 173.233 210.133 173.667 209.4 174C208.733 174.267 208.033 174.467 207.3 174.6C205.9 175.067 204.3 175.3 202.5 175.3H182.9C182.967 175.567 183 175.933 183 176.4V185C183 185.6 183 186.167 183 186.7C183 187.233 182.933 187.667 182.8 188C182.667 188.733 182.533 189.4 182.4 190C182.267 190.6 182.033 191.233 181.7 191.9C181.233 193.033 180.433 194.033 179.3 194.9C178.767 195.233 178.2 195.433 177.6 195.5C177.067 195.633 176.467 195.733 175.8 195.8C175.067 195.8 174.4 195.733 173.8 195.6C173.267 195.467 172.733 195.3 172.2 195.1C171.267 194.5 170.567 193.733 170.1 192.8C169.9 192.267 169.733 191.733 169.6 191.2C169.533 190.667 169.467 190.2 169.4 189.8C169.4 189.4 169.367 188.967 169.3 188.5C169.233 188.033 169.2 187.633 169.2 187.3C169.333 186.9 169.4 186.467 169.4 186C169.4 185.6 169.4 185.267 169.4 185C169.267 184.2 169.2 183.133 169.2 181.8C169.2 180.4 169.2 179.2 169.2 178.2V175.3H147.8ZM195.4 137.1C195.4 135.567 195.133 134.267 194.6 133.2C194.267 132.533 193.833 131.933 193.3 131.4C192.833 130.867 192.233 130.4 191.5 130C190.767 129.467 189.833 129.1 188.7 128.9C187.567 128.633 186.4 128.5 185.2 128.5C183.2 128.233 180.7 128.033 177.7 127.9C176.233 127.767 174.8 127.733 173.4 127.8C172 127.867 170.6 127.933 169.2 128C167.8 128.133 166.467 128.333 165.2 128.6C164 128.867 162.867 129.3 161.8 129.9C159.533 130.767 158.233 132.267 157.9 134.4C157.567 135.8 157.567 136.967 157.9 137.9C158.033 138.567 158.233 139.167 158.5 139.7C158.767 140.233 159.2 140.733 159.8 141.2C160.667 142.067 161.933 142.767 163.6 143.3C165.067 144.1 167.167 144.5 169.9 144.5C170.9 144.633 171.9 144.733 172.9 144.8C173.967 144.867 175.133 144.967 176.4 145.1H183.6C186 144.833 188.2 144.5 190.2 144.1C192.267 143.233 193.733 142.267 194.6 141.2C194.867 140.467 195.033 139.8 195.1 139.2C195.167 138.533 195.267 137.833 195.4 137.1Z" fill="#1A74E8"/>
<path d="M234.13 161C233.463 161.133 232.996 161.4 232.73 161.8C232.463 162.2 232.296 162.667 232.23 163.2C232.163 163.733 232.163 164.267 232.23 164.8C232.296 165.333 232.33 165.833 232.33 166.3C232.33 166.7 232.33 167.233 232.33 167.9C232.33 168.5 232.33 169.167 232.33 169.9C232.33 170.567 232.33 171.233 232.33 171.9C232.396 172.567 232.463 173.133 232.53 173.6C232.53 174 232.496 174.567 232.43 175.3C232.43 175.967 232.596 176.467 232.93 176.8C232.93 176.933 232.996 177.033 233.13 177.1C233.263 177.167 233.396 177.2 233.53 177.2C235.063 177.2 236.763 177.2 238.63 177.2C240.496 177.2 242.196 177.133 243.73 177C246.063 177 248.496 177 251.03 177C253.63 176.933 256.096 177 258.43 177.2C259.363 177.333 260.063 177.567 260.53 177.9C261.063 178.233 261.496 178.667 261.83 179.2C262.23 179.733 262.496 180.333 262.63 181C262.763 181.6 262.83 182.267 262.83 183C262.963 183.8 262.896 184.533 262.63 185.2C262.43 185.933 262.163 186.5 261.83 186.9C261.496 187.3 261.096 187.633 260.63 187.9C260.23 188.233 259.763 188.567 259.23 188.9C257.896 189.5 256.563 189.767 255.23 189.7C253.963 189.7 252.63 189.767 251.23 189.9C250.03 189.9 248.663 189.933 247.13 190C245.596 190.067 244.196 190.033 242.93 189.9C241.93 189.767 240.796 189.733 239.53 189.8C238.33 189.867 237.263 189.9 236.33 189.9C235.396 189.767 234.496 189.733 233.63 189.8C232.763 189.867 231.863 189.9 230.93 189.9C229.33 189.767 227.73 189.6 226.13 189.4C224.53 189.2 223.063 188.633 221.73 187.7C220.796 187.167 220.096 186.267 219.63 185C219.23 184.2 218.93 183.3 218.73 182.3C218.53 181.3 218.496 180.333 218.63 179.4C218.696 177.933 218.696 176.333 218.63 174.6C218.63 172.8 218.596 171 218.53 169.2C218.53 167.4 218.496 165.633 218.43 163.9C218.43 162.1 218.43 160.4 218.43 158.8C218.43 157.6 218.396 156.333 218.33 155C218.33 153.6 218.63 152.4 219.23 151.4C219.83 150.467 220.496 149.8 221.23 149.4C221.963 148.933 222.73 148.633 223.53 148.5C224.396 148.367 225.263 148.333 226.13 148.4C227.063 148.4 227.996 148.4 228.93 148.4H238.13C238.53 148.4 239.063 148.4 239.73 148.4C240.463 148.4 241.196 148.4 241.93 148.4C242.663 148.333 243.396 148.3 244.13 148.3C244.863 148.233 245.43 148.133 245.83 148C246.43 147.8 246.83 147.4 247.03 146.8C247.363 145.067 247.53 143.167 247.53 141.1C247.596 139.033 247.563 137.133 247.43 135.4C247.43 134.667 247.43 133.733 247.43 132.6C247.43 131.467 247.23 130.6 246.83 130C246.363 129.333 245.33 129 243.73 129L225.13 129.2C224.196 129.2 223.163 129.1 222.03 128.9C220.896 128.633 220.03 128.133 219.43 127.4C219.23 127.067 219.03 126.767 218.83 126.5C218.63 126.167 218.43 125.733 218.23 125.2C217.696 123.4 217.83 121.767 218.63 120.3C219.496 118.833 220.863 117.9 222.73 117.5C224.33 117.167 225.93 117.067 227.53 117.2C229.13 117.267 230.73 117.233 232.33 117.1H247.43C248.763 117.1 250.13 117.1 251.53 117.1C252.93 117.1 254.296 117.3 255.63 117.7C257.03 118.1 258.23 119.1 259.23 120.7C259.363 121.033 259.463 121.333 259.53 121.6C259.596 121.867 259.696 122.2 259.83 122.6C259.963 122.933 260.063 123.233 260.13 123.5C260.196 123.767 260.23 124.067 260.23 124.4C260.363 125.533 260.43 126.867 260.43 128.4C260.43 129.933 260.43 131.2 260.43 132.2C260.43 134.333 260.463 136.6 260.53 139C260.596 141.4 260.63 143.667 260.63 145.8C260.63 148 260.596 150.133 260.53 152.2C260.53 154.267 260.23 156.067 259.63 157.6C258.963 158.933 258.03 159.8 256.83 160.2C255.696 160.733 254.463 160.967 253.13 160.9C251.796 160.833 250.563 160.8 249.43 160.8C248.696 160.8 247.83 160.833 246.83 160.9C245.83 160.9 244.83 160.9 243.83 160.9C242.83 160.9 241.863 160.933 240.93 161C240.063 161 239.33 161 238.73 161C238.196 161 237.73 161 237.33 161C236.996 160.933 236.663 160.9 236.33 160.9C236.063 160.833 235.763 160.833 235.43 160.9C235.096 160.9 234.663 160.933 234.13 161ZM288.63 185.4C288.496 186.2 288.396 186.967 288.33 187.7C288.263 188.5 288.096 189.3 287.83 190.1C287.696 190.367 287.596 190.6 287.53 190.8C287.463 191 287.363 191.233 287.23 191.5C286.763 192.433 286.163 193.167 285.43 193.7C283.896 194.633 282.196 194.867 280.33 194.4C279.263 194.2 278.396 193.8 277.73 193.2C277.13 192.667 276.663 191.967 276.33 191.1C276.063 190.3 275.83 189.5 275.63 188.7C275.496 187.9 275.43 187.2 275.43 186.6C275.43 186 275.43 185.667 275.43 185.6V126.7C275.43 125.9 275.43 125.033 275.43 124.1C275.43 123.167 275.496 122.233 275.63 121.3C275.763 120.367 275.963 119.5 276.23 118.7C276.496 117.9 276.863 117.267 277.33 116.8C278.063 116.067 278.83 115.633 279.63 115.5C280.43 115.3 281.296 115.2 282.23 115.2C283.363 115.2 284.396 115.533 285.33 116.2C286.33 116.8 287.03 117.667 287.43 118.8C288.03 120.2 288.363 121.667 288.43 123.2C288.496 124.733 288.563 126.267 288.63 127.8V128.3C288.763 133.433 288.796 138.233 288.73 142.7C288.663 147.1 288.63 151.7 288.63 156.5V181.8C288.63 182.4 288.63 183 288.63 183.6C288.696 184.2 288.696 184.8 288.63 185.4Z" fill="#202020"/>
<path d="M187.5 244.7C187.5 247.833 186.8 250.8 185.4 253.6C184 256.4 182.033 258.767 179.5 260.7C177.233 262.367 174.733 263.533 172 264.2C169.333 264.867 166.633 265.1 163.9 264.9C161.167 264.7 158.533 264.1 156 263.1C153.467 262.033 151.2 260.633 149.2 258.9C147.267 257.167 145.7 255.1 144.5 252.7C143.3 250.3 142.7 247.633 142.7 244.7C142.7 242.033 143.1 239.633 143.9 237.5C144.7 235.367 145.8 233.467 147.2 231.8H145.4C143.733 231.8 142.333 231.3 141.2 230.3C140.067 229.233 139.5 227.967 139.5 226.5C139.5 224.967 140.067 223.7 141.2 222.7C142.333 221.633 143.733 221.1 145.4 221.1H158.6V217.9C158.6 216.567 159.167 215.467 160.3 214.6C161.433 213.667 162.8 213.2 164.4 213.2C166 213.2 167.367 213.667 168.5 214.6C169.633 215.467 170.2 216.567 170.2 217.9V221.1H184.1C185.767 221.1 187.167 221.633 188.3 222.7C189.433 223.7 190 224.967 190 226.5C190 227.967 189.433 229.233 188.3 230.3C187.167 231.3 185.767 231.8 184.1 231.8H182.9C184.3 233.467 185.4 235.367 186.2 237.5C187.067 239.633 187.5 242.033 187.5 244.7ZM203.4 271.2C206.2 271.2 208.233 271.8 209.5 273C210.833 274.2 211.5 275.567 211.5 277.1V282.8C211.5 283 211.5 283.4 211.5 284C211.5 284.533 211.5 285.1 211.5 285.7C211.5 286.3 211.5 286.867 211.5 287.4C211.567 287.933 211.6 288.3 211.6 288.5C211.6 289.233 211.6 289.967 211.6 290.7C211.6 291.433 211.567 292.167 211.5 292.9C211.367 294.3 210.8 295.433 209.8 296.3C208.867 297.167 207.633 297.6 206.1 297.6C205.767 297.6 205.167 297.567 204.3 297.5C203.5 297.5 202.933 297.433 202.6 297.3C201.667 297.033 200.933 296.633 200.4 296.1C199.933 295.567 199.567 294.967 199.3 294.3C199.033 293.633 198.867 292.9 198.8 292.1C198.733 291.367 198.667 290.633 198.6 289.9C198.6 289.633 198.6 289.167 198.6 288.5C198.6 287.833 198.567 287.133 198.5 286.4C198.5 285.733 198.467 285.1 198.4 284.5C198.333 283.833 198.267 283.367 198.2 283.1C198 283.033 197.467 282.967 196.6 282.9C195.733 282.833 194.033 282.8 191.5 282.8C189.367 282.8 188.033 282.833 187.5 282.9C187.033 282.9 186.767 282.9 186.7 282.9H150.6C150.533 282.9 150.267 282.833 149.8 282.7C149.4 282.567 148.933 282.367 148.4 282.1C147.867 281.767 147.367 281.367 146.9 280.9C146.433 280.433 146.167 279.867 146.1 279.2C145.7 276.6 146.1 274.6 147.3 273.2C148.1 272.267 148.967 271.733 149.9 271.6C150.833 271.4 151.333 271.267 151.4 271.2H203.4ZM211.4 247.6V256.7C211.333 257.433 211.233 258.2 211.1 259C210.967 259.733 210.7 260.467 210.3 261.2C209.9 262 209.333 262.667 208.6 263.2C207.667 263.867 206.567 264.2 205.3 264.2C204.167 264.2 203.233 263.967 202.5 263.5C201.833 263.1 201.3 262.6 200.9 262C200.5 261.4 200.167 260.833 199.9 260.3C199.7 259.7 199.567 259.2 199.5 258.8C199.433 258.333 199.4 258.1 199.4 258.1V225.1C199.333 224.833 199.367 224.1 199.5 222.9C199.633 221.7 199.9 220.7 200.3 219.9C200.967 218.5 202.3 217.7 204.3 217.5C206.767 217.167 208.6 217.667 209.8 219C210.2 219.533 210.467 220.067 210.6 220.6C210.8 221.067 210.967 221.567 211.1 222.1C211.3 222.767 211.4 223.467 211.4 224.2C211.467 224.933 211.467 225.667 211.4 226.4V233.3V234.2C211.4 234.533 211.367 234.9 211.3 235.3C211.3 235.633 211.333 236.033 211.4 236.5C211.667 236.5 212.167 236.533 212.9 236.6C213.633 236.6 214.4 236.633 215.2 236.7C216 236.7 216.767 236.733 217.5 236.8C218.233 236.867 218.767 236.933 219.1 237C220.433 237.267 221.367 237.667 221.9 238.2C222.433 238.667 222.767 239.267 222.9 240C223.1 240.733 223.2 241.6 223.2 242.6C223.2 243.533 223 244.333 222.6 245C221.8 246.333 220.6 247.1 219 247.3C217.4 247.433 215.633 247.533 213.7 247.6H211.4ZM167.1 253.6C169.233 253.2 171.067 252.267 172.6 250.8C174.2 249.267 175 247.233 175 244.7C175 242.7 174.5 241.033 173.5 239.7C172.567 238.367 171.367 237.367 169.9 236.7C168.433 235.967 166.833 235.6 165.1 235.6C163.367 235.533 161.767 235.833 160.3 236.5C158.833 237.167 157.6 238.2 156.6 239.6C155.667 240.933 155.2 242.633 155.2 244.7C155.2 246.5 155.567 248.033 156.3 249.3C157.033 250.567 157.967 251.567 159.1 252.3C160.233 253.033 161.5 253.5 162.9 253.7C164.3 253.9 165.7 253.867 167.1 253.6Z" fill="#1A74E8"/>
<path d="M291.342 278.6C291.542 278.667 291.742 278.7 291.942 278.7C292.142 278.633 292.342 278.6 292.542 278.6C293.676 278.733 294.709 278.967 295.642 279.3C296.642 279.567 297.609 280.133 298.542 281C299.476 281.8 299.942 282.933 299.942 284.4C299.942 285.133 299.809 285.9 299.542 286.7C299.342 287.567 299.042 288.233 298.642 288.7C298.109 289.233 297.442 289.633 296.642 289.9C295.909 290.167 295.142 290.333 294.342 290.4C293.609 290.533 292.942 290.6 292.342 290.6C291.809 290.6 291.509 290.6 291.442 290.6H237.442C237.109 290.6 236.776 290.6 236.442 290.6C236.176 290.667 235.876 290.7 235.542 290.7C234.076 290.767 232.542 290.733 230.942 290.6C229.342 290.533 227.976 290.033 226.842 289.1C225.442 287.833 224.742 286.4 224.742 284.8C224.742 283.8 225.042 282.767 225.642 281.7C226.242 280.633 227.042 279.9 228.042 279.5C228.709 279.233 229.276 279.067 229.742 279C230.276 278.867 230.776 278.767 231.242 278.7C231.776 278.633 232.309 278.6 232.842 278.6C233.442 278.6 234.176 278.6 235.042 278.6H237.942C237.876 278.333 237.842 277.967 237.842 277.5V277.1V261.5C237.842 260.9 237.942 260.267 238.142 259.6C238.276 259.067 238.509 258.5 238.842 257.9C239.242 257.3 239.809 256.733 240.542 256.2C241.409 255.6 242.376 255.233 243.442 255.1C244.509 254.967 245.509 255.067 246.442 255.4C247.442 255.733 248.276 256.3 248.942 257.1C249.676 257.833 250.076 258.767 250.142 259.9C250.142 260.5 250.142 261.467 250.142 262.8C250.209 264.133 250.242 265.667 250.242 267.4C250.309 269.133 250.342 270.967 250.342 272.9C250.409 274.833 250.442 276.7 250.442 278.5C251.909 278.5 253.342 278.533 254.742 278.6C256.142 278.6 257.542 278.6 258.942 278.6C258.876 278.333 258.842 277.967 258.842 277.5V277.1V261.5C258.842 260.9 258.942 260.267 259.142 259.6C259.276 259.067 259.509 258.5 259.842 257.9C260.242 257.3 260.809 256.733 261.542 256.2C262.409 255.6 263.376 255.233 264.442 255.1C265.509 254.967 266.509 255.067 267.442 255.4C268.442 255.733 269.276 256.3 269.942 257.1C270.676 257.833 271.076 258.767 271.142 259.9C271.142 260.5 271.142 261.467 271.142 262.8C271.209 264.133 271.242 265.667 271.242 267.4C271.309 269.133 271.342 271 271.342 273C271.409 274.933 271.442 276.8 271.442 278.6C273.176 278.533 275.209 278.5 277.542 278.5C279.942 278.5 282.276 278.533 284.542 278.6C285.742 278.667 286.909 278.667 288.042 278.6C289.176 278.467 290.276 278.467 291.342 278.6ZM236.442 234.7C235.309 234.7 234.009 234.567 232.542 234.3C231.142 233.967 230.042 233.2 229.242 232C228.776 231.2 228.476 230.3 228.342 229.3C228.209 228.3 228.276 227.333 228.542 226.4C229.076 224.533 230.309 223.167 232.242 222.3C232.642 222.167 233.042 222.033 233.442 221.9C233.842 221.767 234.276 221.633 234.742 221.5C236.009 221.167 237.042 221 237.842 221C238.709 220.933 239.809 220.867 241.142 220.8C241.742 220.8 242.209 220.8 242.542 220.8C242.876 220.8 243.309 220.767 243.842 220.7C244.376 220.7 244.742 220.7 244.942 220.7C245.142 220.633 245.542 220.6 246.142 220.6C246.476 220.6 247.309 220.6 248.642 220.6C249.976 220.6 251.509 220.6 253.242 220.6C255.042 220.6 256.942 220.633 258.942 220.7C260.942 220.7 262.809 220.7 264.542 220.7C266.342 220.7 267.876 220.733 269.142 220.8C270.476 220.8 271.309 220.8 271.642 220.8C272.642 220.867 273.676 220.9 274.742 220.9C275.809 220.9 276.876 220.9 277.942 220.9C279.142 220.9 280.309 220.933 281.442 221C282.642 221.067 283.842 221.167 285.042 221.3C285.576 221.433 286.109 221.533 286.642 221.6C287.242 221.667 287.809 221.867 288.342 222.2C289.076 222.6 289.642 223.2 290.042 224C290.442 224.733 290.742 225.567 290.942 226.5C291.209 227.367 291.376 228.267 291.442 229.2C291.509 230.133 291.542 230.967 291.542 231.7C291.542 232.633 291.542 233.533 291.542 234.4C291.609 235.267 291.642 236.167 291.642 237.1C291.709 238.367 291.742 239.833 291.742 241.5C291.742 243.167 291.709 244.633 291.642 245.9C291.576 248.633 291.509 251.333 291.442 254C291.442 256.6 291.442 259.267 291.442 262C291.442 263.067 291.342 264.133 291.142 265.2C290.942 266.2 290.509 267.167 289.842 268.1C289.109 269.033 288.209 269.7 287.142 270.1C286.076 270.433 284.976 270.433 283.842 270.1C282.509 269.767 281.509 269.2 280.842 268.4C280.242 267.533 279.776 266.567 279.442 265.5C279.176 264.367 279.009 263.2 278.942 262C278.876 260.733 278.776 259.567 278.642 258.5C278.242 255.7 278.042 252.967 278.042 250.3C278.109 248.767 278.076 247.1 277.942 245.3C277.809 243.433 277.742 241.767 277.742 240.3C277.742 239.167 277.676 238.1 277.542 237.1C277.409 236.033 276.876 235.233 275.942 234.7C275.542 234.5 275.076 234.4 274.542 234.4C274.009 234.4 273.376 234.4 272.642 234.4H270.542C270.209 234.467 269.876 234.5 269.542 234.5C269.209 234.433 268.876 234.4 268.542 234.4H257.942C256.609 234.4 255.442 234.467 254.442 234.6C253.509 234.667 252.376 234.7 251.042 234.7C249.709 234.7 248.509 234.7 247.442 234.7C246.442 234.633 245.276 234.667 243.942 234.8C243.409 234.867 242.976 234.867 242.642 234.8C242.376 234.733 241.976 234.7 241.442 234.7H236.442Z" fill="#202020"/>
<path d="M204.3 359C205.433 359.067 206.567 359.233 207.7 359.5C208.9 359.767 209.967 360.267 210.9 361C211.833 361.733 212.3 362.767 212.3 364.1C212.3 364.767 212.167 365.467 211.9 366.2C211.7 366.933 211.4 367.467 211 367.8C210.467 368.333 209.767 368.733 208.9 369C208.1 369.2 207.3 369.367 206.5 369.5C205.7 369.567 205 369.6 204.4 369.6C203.867 369.6 203.567 369.6 203.5 369.6L150.2 369.7C148.667 369.767 147.067 369.767 145.4 369.7C143.8 369.633 142.433 369.133 141.3 368.2C139.767 367.067 139 365.833 139 364.5C139 363.567 139.3 362.633 139.9 361.7C140.567 360.7 141.433 360.033 142.5 359.7C143.9 359.233 145.333 359.033 146.8 359.1C148.267 359.1 149.767 359.067 151.3 359C152.9 358.933 154.267 358.9 155.4 358.9C156.6 358.9 157.733 358.9 158.8 358.9C159.933 358.9 161.1 358.933 162.3 359C163.5 359 164.933 359 166.6 359V353.3C163.8 353.233 161.1 353.2 158.5 353.2C155.967 353.133 154.067 353.067 152.8 353C152 353 151.067 352.967 150 352.9C148.933 352.833 147.9 352.667 146.9 352.4C145.967 352.133 145.1 351.733 144.3 351.2C143.567 350.667 143.067 349.933 142.8 349C142.6 348.267 142.433 347.7 142.3 347.3C142.233 346.9 142.133 346.533 142 346.2C141.933 345.867 141.867 345.5 141.8 345.1C141.8 344.7 141.8 344.1 141.8 343.3V332.6C141.8 332.667 141.767 332.433 141.7 331.9C141.7 331.367 141.733 330.733 141.8 330C141.867 329.2 142 328.367 142.2 327.5C142.467 326.567 142.8 325.767 143.2 325.1C143.6 324.433 144.233 323.9 145.1 323.5C146.033 323.1 146.933 322.8 147.8 322.6C148.733 322.4 149.567 322.3 150.3 322.3C151.033 322.233 151.5 322.2 151.7 322.2H195.7C197.1 322.2 198.533 322.2 200 322.2C201.533 322.2 202.967 322.467 204.3 323C205.433 323.467 206.2 324.233 206.6 325.3C207 326.367 207.167 327.5 207.1 328.7C206.967 329.833 206.533 330.8 205.8 331.6C205.133 332.4 204.233 332.967 203.1 333.3C202.033 333.567 200.167 333.7 197.5 333.7H195.3C194.967 333.7 194.667 333.667 194.4 333.6H159C158.667 333.533 158.167 333.533 157.5 333.6C156.9 333.6 156.433 333.7 156.1 333.9C155.9 333.967 155.767 334.367 155.7 335.1C155.633 335.833 155.6 336.633 155.6 337.5C155.6 338.3 155.6 339.1 155.6 339.9C155.667 340.633 155.733 341.1 155.8 341.3C156.067 341.767 156.633 342.033 157.5 342.1C158.367 342.1 159.167 342.067 159.9 342C160.7 342 161.733 342 163 342C164.267 342 166 342 168.2 342C170.4 342 173.2 342 176.6 342C180 342 184.2 342 189.2 342H196.6C198.267 342 199.767 342.033 201.1 342.1C202.5 342.1 203.767 342.367 204.9 342.9C206.233 343.5 207.133 344.633 207.6 346.3C207.933 347.967 207.6 349.467 206.6 350.8C205.533 352.133 204.367 352.833 203.1 352.9C201.9 352.967 200.567 353.033 199.1 353.1C198.567 353.1 197.567 353.133 196.1 353.2C194.7 353.2 193.1 353.233 191.3 353.3C189.567 353.3 187.733 353.3 185.8 353.3C183.867 353.3 182.133 353.3 180.6 353.3C180.667 354.233 180.7 355.233 180.7 356.3C180.767 357.3 180.8 358.2 180.8 359C182.667 359 184.667 359 186.8 359C188.933 358.933 191.067 358.9 193.2 358.9C195.333 358.9 197.367 358.9 199.3 358.9C201.233 358.9 202.9 358.933 204.3 359ZM142.2 388.2C142.2 385.4 143.067 383.1 144.8 381.3C146.533 379.433 148.867 378 151.8 377C154.733 375.933 158.167 375.2 162.1 374.8C166.1 374.4 170.367 374.2 174.9 374.2C179.433 374.2 183.667 374.333 187.6 374.6C191.6 374.867 195.067 375.5 198 376.5C201 377.433 203.367 378.833 205.1 380.7C206.833 382.567 207.7 385.067 207.7 388.2C207.7 391.333 206.833 393.8 205.1 395.6C203.367 397.467 201 398.867 198 399.8C195.067 400.8 191.6 401.433 187.6 401.7C183.667 402.033 179.433 402.2 174.9 402.2C170.367 402.2 166.1 402.033 162.1 401.7C158.167 401.433 154.733 400.8 151.8 399.8C148.867 398.867 146.533 397.467 144.8 395.6C143.067 393.8 142.2 391.333 142.2 388.2ZM194.5 388.2C194.5 387.133 193.9 386.333 192.7 385.8C191.567 385.2 190.033 384.767 188.1 384.5C186.233 384.233 184.133 384.1 181.8 384.1C179.467 384.033 177.167 384 174.9 384C172.633 384 170.367 384.033 168.1 384.1C165.833 384.1 163.8 384.233 162 384.5C160.2 384.767 158.733 385.2 157.6 385.8C156.533 386.333 156 387.133 156 388.2C156 389.133 156.533 389.867 157.6 390.4C158.733 391 160.2 391.433 162 391.7C163.8 392.033 165.833 392.233 168.1 392.3C170.367 392.367 172.633 392.4 174.9 392.4C177.167 392.4 179.467 392.4 181.8 392.4C184.133 392.467 186.233 392.4 188.1 392.2C190.033 392 191.567 391.6 192.7 391C193.9 390.4 194.5 389.467 194.5 388.2Z" fill="#1A74E8"/>
<path d="M239.244 320.4C240.11 320.4 240.944 320.433 241.744 320.5C242.544 320.567 243.344 320.667 244.144 320.8C246.677 321.2 248.91 322.367 250.844 324.3C252.444 326.033 253.744 328.033 254.744 330.3C255.744 332.5 256.51 334.833 257.044 337.3C257.644 339.767 258.044 342.3 258.244 344.9C258.444 347.433 258.61 349.9 258.744 352.3C258.877 355.367 258.91 358.433 258.844 361.5C258.844 364.567 258.677 367.6 258.344 370.6C258.01 373.733 257.51 376.9 256.844 380.1C256.244 383.233 255.11 386.067 253.444 388.6C252.044 390.733 250.344 392.467 248.344 393.8C246.41 395.2 244.31 396.133 242.044 396.6C239.977 397 237.877 397.067 235.744 396.8C233.61 396.533 231.577 395.833 229.644 394.7C227.844 393.633 226.377 392.3 225.244 390.7C224.177 389.1 223.177 387.233 222.244 385.1C220.91 381.9 220.144 378.6 219.944 375.2C219.677 372.4 219.477 369.6 219.344 366.8C219.277 364 219.244 361.2 219.244 358.4C219.244 354.667 219.444 350.933 219.844 347.2C219.977 345.667 220.11 344.167 220.244 342.7C220.377 341.167 220.577 339.667 220.844 338.2C221.11 337 221.344 335.867 221.544 334.8C221.744 333.733 222.11 332.633 222.644 331.5C223.177 330.367 223.744 329.3 224.344 328.3C225.01 327.3 225.777 326.4 226.644 325.6C229.444 322.8 232.81 321.133 236.744 320.6C237.144 320.533 237.544 320.5 237.944 320.5C238.41 320.5 238.844 320.467 239.244 320.4ZM289.244 351.1C289.577 351.1 289.877 351.133 290.144 351.2C290.477 351.267 290.81 351.3 291.144 351.3C291.477 351.367 291.844 351.433 292.244 351.5C292.644 351.5 293.044 351.533 293.444 351.6C294.177 351.733 294.91 352 295.644 352.4C296.377 352.733 296.91 353.267 297.244 354C297.71 354.733 297.944 355.6 297.944 356.6C297.944 357.133 297.91 357.633 297.844 358.1C297.844 358.5 297.777 358.967 297.644 359.5C297.51 360.033 297.344 360.6 297.144 361.2C297.01 361.8 296.71 362.267 296.244 362.6C295.31 363.267 294.41 363.7 293.544 363.9C292.477 364.033 291.177 364.067 289.644 364C288.11 363.933 286.81 363.933 285.744 364C285.677 364 285.61 364.033 285.544 364.1H285.444L285.344 364.2V364.5C285.344 365.3 285.344 366.267 285.344 367.4C285.344 368.533 285.344 369.7 285.344 370.9C285.344 372.033 285.344 373.167 285.344 374.3C285.344 375.367 285.344 376.333 285.344 377.2C285.477 380.667 285.477 384.067 285.344 387.4V388.8C285.344 389.667 285.31 390.6 285.244 391.6C285.244 392.667 285.177 393.7 285.044 394.7C284.91 395.7 284.677 396.633 284.344 397.5C284.01 398.433 283.544 399.2 282.944 399.8C282.144 400.733 281.077 401.2 279.744 401.2C279.744 401.2 279.677 401.167 279.544 401.1C277.944 401.033 276.644 400.567 275.644 399.7C274.71 398.833 273.977 397.767 273.444 396.5C272.977 395.233 272.677 393.9 272.544 392.5C272.41 391.167 272.344 389.967 272.344 388.9V329.5C272.344 329.433 272.344 329.133 272.344 328.6C272.344 328 272.41 327.333 272.544 326.6C272.677 325.8 272.877 325 273.144 324.2C273.477 323.333 273.91 322.633 274.444 322.1C274.91 321.633 275.577 321.3 276.444 321.1C277.377 320.833 278.21 320.7 278.944 320.7C280.41 320.7 281.644 321.2 282.644 322.2C283.577 323.133 284.11 324.133 284.244 325.2C284.444 326.2 284.61 327.267 284.744 328.4C284.81 328.667 284.844 329.067 284.844 329.6C284.977 330.733 285.044 331.9 285.044 333.1C285.11 334.3 285.177 335.5 285.244 336.7C285.244 337.433 285.244 338.167 285.244 338.9C285.31 339.567 285.344 340.267 285.344 341C285.277 341.4 285.244 341.8 285.244 342.2C285.31 342.533 285.344 342.867 285.344 343.2V348.7C285.344 349.033 285.344 349.4 285.344 349.8C285.344 350.2 285.41 350.567 285.544 350.9C285.544 350.967 285.877 351 286.544 351C287.21 351 287.577 351 287.644 351C288.244 351.133 288.71 351.167 289.044 351.1H289.244ZM238.944 383.3C240.21 383.3 241.444 382.9 242.644 382.1C243.777 381.3 244.577 380.233 245.044 378.9C245.51 377.567 245.91 376.1 246.244 374.5C246.777 371.433 247.077 368.167 247.144 364.7C247.21 361.233 247.177 357.9 247.044 354.7C247.044 353.433 247.01 352.1 246.944 350.7C246.877 349.233 246.744 347.8 246.544 346.4C246.41 345 246.177 343.667 245.844 342.4C245.51 341.067 245.044 339.9 244.444 338.9C243.777 337.767 242.977 336.9 242.044 336.3C241.11 335.7 240.11 335.467 239.044 335.6C237.91 335.733 236.844 336.133 235.844 336.8C234.91 337.467 234.144 338.467 233.544 339.8L232.644 341.9C232.244 343.167 231.944 344.5 231.744 345.9C231.544 347.233 231.377 348.567 231.244 349.9C231.11 351.233 231.01 352.6 230.944 354C230.877 355.4 230.844 356.767 230.844 358.1C230.91 359.433 230.877 360.733 230.744 362C230.677 363.267 230.71 364.567 230.844 365.9C230.977 367.633 231.144 369.5 231.344 371.5C231.61 373.5 232.01 375.4 232.544 377.2C233.144 378.933 233.944 380.4 234.944 381.6C235.944 382.733 237.277 383.3 238.944 383.3ZM316.552 367C315.885 367.133 315.418 367.4 315.152 367.8C314.885 368.2 314.718 368.667 314.652 369.2C314.585 369.733 314.585 370.267 314.652 370.8C314.718 371.333 314.752 371.833 314.752 372.3C314.752 372.7 314.752 373.233 314.752 373.9C314.752 374.5 314.752 375.167 314.752 375.9C314.752 376.567 314.752 377.233 314.752 377.9C314.818 378.567 314.885 379.133 314.952 379.6C314.952 380 314.918 380.567 314.852 381.3C314.852 381.967 315.018 382.467 315.352 382.8C315.352 382.933 315.418 383.033 315.552 383.1C315.685 383.167 315.818 383.2 315.952 383.2C317.485 383.2 319.185 383.2 321.052 383.2C322.918 383.2 324.618 383.133 326.152 383C328.485 383 330.918 383 333.452 383C336.052 382.933 338.518 383 340.852 383.2C341.785 383.333 342.485 383.567 342.952 383.9C343.485 384.233 343.918 384.667 344.252 385.2C344.652 385.733 344.918 386.333 345.052 387C345.185 387.6 345.252 388.267 345.252 389C345.385 389.8 345.318 390.533 345.052 391.2C344.852 391.933 344.585 392.5 344.252 392.9C343.918 393.3 343.518 393.633 343.052 393.9C342.652 394.233 342.185 394.567 341.652 394.9C340.318 395.5 338.985 395.767 337.652 395.7C336.385 395.7 335.052 395.767 333.652 395.9C332.452 395.9 331.085 395.933 329.552 396C328.018 396.067 326.618 396.033 325.352 395.9C324.352 395.767 323.218 395.733 321.952 395.8C320.752 395.867 319.685 395.9 318.752 395.9C317.818 395.767 316.918 395.733 316.052 395.8C315.185 395.867 314.285 395.9 313.352 395.9C311.752 395.767 310.152 395.6 308.552 395.4C306.952 395.2 305.485 394.633 304.152 393.7C303.218 393.167 302.518 392.267 302.052 391C301.652 390.2 301.352 389.3 301.152 388.3C300.952 387.3 300.918 386.333 301.052 385.4C301.118 383.933 301.118 382.333 301.052 380.6C301.052 378.8 301.018 377 300.952 375.2C300.952 373.4 300.918 371.633 300.852 369.9C300.852 368.1 300.852 366.4 300.852 364.8C300.852 363.6 300.818 362.333 300.752 361C300.752 359.6 301.052 358.4 301.652 357.4C302.252 356.467 302.918 355.8 303.652 355.4C304.385 354.933 305.152 354.633 305.952 354.5C306.818 354.367 307.685 354.333 308.552 354.4C309.485 354.4 310.418 354.4 311.352 354.4H320.552C320.952 354.4 321.485 354.4 322.152 354.4C322.885 354.4 323.618 354.4 324.352 354.4C325.085 354.333 325.818 354.3 326.552 354.3C327.285 354.233 327.852 354.133 328.252 354C328.852 353.8 329.252 353.4 329.452 352.8C329.785 351.067 329.952 349.167 329.952 347.1C330.018 345.033 329.985 343.133 329.852 341.4C329.852 340.667 329.852 339.733 329.852 338.6C329.852 337.467 329.652 336.6 329.252 336C328.785 335.333 327.752 335 326.152 335L307.552 335.2C306.618 335.2 305.585 335.1 304.452 334.9C303.318 334.633 302.452 334.133 301.852 333.4C301.652 333.067 301.452 332.767 301.252 332.5C301.052 332.167 300.852 331.733 300.652 331.2C300.118 329.4 300.252 327.767 301.052 326.3C301.918 324.833 303.285 323.9 305.152 323.5C306.752 323.167 308.352 323.067 309.952 323.2C311.552 323.267 313.152 323.233 314.752 323.1H329.852C331.185 323.1 332.552 323.1 333.952 323.1C335.352 323.1 336.718 323.3 338.052 323.7C339.452 324.1 340.652 325.1 341.652 326.7C341.785 327.033 341.885 327.333 341.952 327.6C342.018 327.867 342.118 328.2 342.252 328.6C342.385 328.933 342.485 329.233 342.552 329.5C342.618 329.767 342.652 330.067 342.652 330.4C342.785 331.533 342.852 332.867 342.852 334.4C342.852 335.933 342.852 337.2 342.852 338.2C342.852 340.333 342.885 342.6 342.952 345C343.018 347.4 343.052 349.667 343.052 351.8C343.052 354 343.018 356.133 342.952 358.2C342.952 360.267 342.652 362.067 342.052 363.6C341.385 364.933 340.452 365.8 339.252 366.2C338.118 366.733 336.885 366.967 335.552 366.9C334.218 366.833 332.985 366.8 331.852 366.8C331.118 366.8 330.252 366.833 329.252 366.9C328.252 366.9 327.252 366.9 326.252 366.9C325.252 366.9 324.285 366.933 323.352 367C322.485 367 321.752 367 321.152 367C320.618 367 320.152 367 319.752 367C319.418 366.933 319.085 366.9 318.752 366.9C318.485 366.833 318.185 366.833 317.852 366.9C317.518 366.9 317.085 366.933 316.552 367ZM371.052 391.4C370.918 392.2 370.818 392.967 370.752 393.7C370.685 394.5 370.518 395.3 370.252 396.1C370.118 396.367 370.018 396.6 369.952 396.8C369.885 397 369.785 397.233 369.652 397.5C369.185 398.433 368.585 399.167 367.852 399.7C366.318 400.633 364.618 400.867 362.752 400.4C361.685 400.2 360.818 399.8 360.152 399.2C359.552 398.667 359.085 397.967 358.752 397.1C358.485 396.3 358.252 395.5 358.052 394.7C357.918 393.9 357.852 393.2 357.852 392.6C357.852 392 357.852 391.667 357.852 391.6V332.7C357.852 331.9 357.852 331.033 357.852 330.1C357.852 329.167 357.918 328.233 358.052 327.3C358.185 326.367 358.385 325.5 358.652 324.7C358.918 323.9 359.285 323.267 359.752 322.8C360.485 322.067 361.252 321.633 362.052 321.5C362.852 321.3 363.718 321.2 364.652 321.2C365.785 321.2 366.818 321.533 367.752 322.2C368.752 322.8 369.452 323.667 369.852 324.8C370.452 326.2 370.785 327.667 370.852 329.2C370.918 330.733 370.985 332.267 371.052 333.8V334.3C371.185 339.433 371.218 344.233 371.152 348.7C371.085 353.1 371.052 357.7 371.052 362.5V387.8C371.052 388.4 371.052 389 371.052 389.6C371.118 390.2 371.118 390.8 371.052 391.4Z" fill="#202020"/>
</svg>
